<svg xmlns="http://www.w3.org/2000/svg" viewBox="0 0 512 512" width="512" height="512"><defs><linearGradient id="rimG" x1="0" y1="0" x2="1" y2="1"><stop offset="0" stop-color="#00E5C0"></stop><stop offset="0.35" stop-color="#7B3CFF"></stop><stop offset="0.72" stop-color="#FF5E7A"></stop><stop offset="1" stop-color="#FFB020"></stop></linearGradient><linearGradient id="strokeG" x1="0" y1="0" x2="1" y2="0"><stop offset="0" stop-color="#00E5C0"></stop><stop offset="0.35" stop-color="#7B3CFF"></stop><stop offset="0.72" stop-color="#FF5E7A"></stop><stop offset="1" stop-color="#FFB020"></stop></linearGradient></defs><path d="M138,250 C110,340 140,446 256,446 C372,446 402,340 374,250 Z" fill="#141a33"></path><ellipse cx="256" cy="250" rx="128" ry="32" fill="#0d1226"></ellipse><ellipse cx="256" cy="246" rx="104" ry="22" fill="url(#rimG)"></ellipse><path d="M188,90 H324 Q362,90 362,128 V170 Q362,208 324,208 H288 L250,260 L232,208 H188 Q150,208 150,170 V128 Q150,90 188,90 Z" fill="#FFFFFF" stroke="url(#strokeG)" stroke-width="9" stroke-linejoin="round"></path><circle cx="206" cy="149" r="15" fill="#00E5C0"></circle><circle cx="256" cy="149" r="15" fill="#7B3CFF"></circle><circle cx="306" cy="149" r="15" fill="#FF5E7A"></circle></svg>